<svg xmlns="http://www.w3.org/2000/svg" width="183" height="40" viewBox="0 0 183 40">
  <defs>
    <style>
      .cls-1 {
        fill: #333;
        font-size: 18px;
        letter-spacing: 0.1em;
      }

      .cls-1, .cls-2 {
        font-family: MFLiHei_Noncommercial-Regular, 'MF LiHei \(Noncommercial\)';
      }

      .cls-2 {
        fill: #666;
        font-size: 10px;
      }

      .cls-3, .cls-4 {
        fill: #fff;
      }

      .cls-3 {
        opacity: 0;
      }

      .cls-5 {
        fill: #2f8fff;
      }

      .cls-6 {
        fill: #ffbe2c;
      }
    </style>
  </defs>
  <g id="组_13938" data-name="组 13938" transform="translate(-30 -12)">
    <g id="组_2159" data-name="组 2159" transform="translate(76 15.325)">
      <text id="比特物联网平台" class="cls-1" transform="translate(0 15.675)"><tspan x="0" y="0">比特物联网平台</tspan></text>
    </g>
    <g id="组_13937" data-name="组 13937" transform="translate(76 39.014)">
      <text id="BITCODER" class="cls-2" transform="translate(0 8.987)"><tspan x="0" y="0">Bitcoder</tspan></text>
      <text id="IoT" class="cls-2" transform="translate(59 8.987)"><tspan x="0" y="0">IoT</tspan></text>
    </g>
    <g id="组_13936" data-name="组 13936" transform="translate(19122 11082)">
      <rect id="矩形_19811" data-name="矩形 19811" class="cls-3" width="40" height="40" transform="translate(-19092 -11070)"/>
      <g id="组_13795" data-name="组 13795" transform="translate(-19088.795 -11067.252)">
        <g id="组_13793" data-name="组 13793" transform="translate(0 0)">
          <path id="椭圆_450" data-name="椭圆 450" class="cls-4" d="M11.449,5.366a5.312,5.312,0,0,1,.706-1.448,5.883,5.883,0,0,1,1.08-1.183,5.381,5.381,0,0,1,1.327-.819,4.128,4.128,0,0,1,1.453-.34,2.922,2.922,0,0,1,1.324.241,2.4,2.4,0,0,1,.958.777,2.734,2.734,0,0,1,.485,1.216,3.841,3.841,0,0,1-.1,1.542,5.22,5.22,0,0,1-.718,1.573A5.876,5.876,0,0,1,16.788,8.21a5.293,5.293,0,0,1-1.446.845,3.924,3.924,0,0,1-1.533.27A2.754,2.754,0,0,1,12.5,8.959a2.4,2.4,0,0,1-.865-.878,2.9,2.9,0,0,1-.366-1.241,4.047,4.047,0,0,1,.183-1.473Z" transform="translate(-0.487 10.154)"/>
          <g id="组_13792" data-name="组 13792" transform="translate(0.401)">
            <path id="减去_60" data-name="减去 60" class="cls-5" d="M79.267,64.159h0l-.405-.08L81.975,53.15q.2.016.4.022t.409,0q.206-.007.415-.025t.42-.048q.206-.029.414-.07t.418-.093q.21-.052.42-.115t.42-.137q.206-.072.413-.156t.413-.177q.206-.094.41-.2t.407-.218q.2-.113.4-.236t.392-.254q.195-.132.385-.272t.376-.289q.186-.148.366-.3t.356-.321q.175-.164.344-.336t.331-.348q.163-.179.32-.364t.3-.376q.149-.191.289-.387t.272-.4q.134-.2.259-.411t.24-.419q.115-.211.22-.424t.2-.428l.021-.047.021-.048.021-.05.021-.051q.068-.174.131-.349t.117-.351q.055-.175.1-.351t.089-.35q.041-.175.076-.35t.061-.348q.027-.173.047-.345t.033-.341V43.38l0-.043,0-.044c0-.015,0-.029,0-.044s0-.029,0-.044q.006-.207,0-.411t-.021-.4q-.016-.2-.042-.393t-.063-.381q-.036-.184-.083-.364t-.1-.353q-.056-.173-.121-.34t-.139-.326q-.074-.158-.156-.31t-.173-.3q-.09-.144-.189-.281t-.2-.265q-.106-.128-.219-.249t-.234-.234q-.12-.113-.247-.217t-.259-.2q-.134-.1-.274-.184t-.286-.167q-.145-.078-.3-.148t-.3-.13q-.157-.062-.32-.114t-.329-.1q-.166-.043-.336-.076t-.342-.058q-.177-.025-.359-.04t-.365-.02q-.184-.005-.37,0t-.374.017q-.187.014-.376.036t-.378.055q-.189.032-.378.073t-.378.091q-.183.048-.367.105t-.366.121q-.183.064-.364.137t-.361.153q-.176.079-.352.165t-.348.18q-.173.093-.344.194t-.339.207q-.165.1-.329.217t-.324.23q-.161.118-.319.243t-.312.254q-.153.129-.3.264t-.3.275q-.145.139-.287.285t-.277.293q-.138.151-.27.305t-.26.314q-.127.159-.248.321t-.236.328q-.117.169-.229.341t-.216.348q-.105.176-.2.354t-.19.359l-.023.045-.022.044-.02.041-.018.037q-.059.126-.114.253t-.108.256q-.052.129-.1.258t-.093.259l-6.978.012.075-.2a6.713,6.713,0,0,1,.376-.727,7.1,7.1,0,0,1,1-1.307,6.785,6.785,0,0,1,.605-.554,6.107,6.107,0,0,1,.652-.462,5.192,5.192,0,0,1,.669-.347,4.278,4.278,0,0,1,.672-.226,3.447,3.447,0,0,1,.662-.1l.108,0h.107l.105,0,.1.009h0q.094.014.19.023t.2.014q.1,0,.2,0t.206,0q.128-.005.259-.017c.087-.008.175-.019.264-.032s.178-.028.269-.046.181-.037.272-.06.185-.047.278-.074.187-.057.281-.089.189-.066.284-.1.19-.075.285-.116.193-.086.289-.132.193-.1.29-.146.193-.1.289-.16.192-.113.287-.173.2-.125.292-.191.193-.134.289-.2.19-.142.284-.216.187-.15.279-.228l.142-.122.141-.125.139-.128.136-.131h0q.118-.131.231-.265t.225-.277q.108-.138.211-.278t.2-.283q.1-.14.185-.283t.173-.286q.084-.144.161-.288t.148-.289q.07-.143.134-.287t.122-.288q.057-.144.109-.287t.1-.286q.036-.115.067-.23T83.5,34.4q.027-.114.049-.226t.04-.223h0c.007-.04.016-.08.024-.12s.018-.081.028-.121.021-.081.032-.122.023-.081.036-.122A5.129,5.129,0,0,1,84,32.743a5.958,5.958,0,0,1,.406-.7,6.687,6.687,0,0,1,.513-.669,7.2,7.2,0,0,1,.61-.62,7.329,7.329,0,0,1,.68-.543,6.968,6.968,0,0,1,.725-.45,6.414,6.414,0,0,1,.755-.345,5.6,5.6,0,0,1,.771-.232l.721-.1a3.845,3.845,0,0,1,.72.017,3.081,3.081,0,0,1,.651.151,2.537,2.537,0,0,1,.566.282,2.26,2.26,0,0,1,.8.94,2.524,2.524,0,0,1,.192.622,3.086,3.086,0,0,1,.039.7,3.922,3.922,0,0,1-.121.762q-.017.065-.036.131t-.04.132q-.021.066-.045.132t-.049.132h0q-.051.123-.1.247t-.089.248q-.042.124-.079.248t-.069.248q-.04.153-.071.306t-.056.3q-.024.152-.04.3t-.024.3q-.009.151-.009.3t.009.3q.009.148.025.293t.042.289q.026.146.06.289t.078.283c.029.093.06.185.095.275s.072.18.112.267h0v0h0v0h0q.04.064.084.127t.089.125q.045.062.093.123c.032.04.065.08.1.12q.1.115.2.224t.22.211q.114.1.236.2t.252.185q.126.086.26.165t.276.152q.142.073.29.138t.3.123q.153.057.311.106t.323.09q.164.041.333.075t.343.058q.173.025.35.042t.36.026q.182.009.368.009c.124,0,.249,0,.374-.008q.153-.007.308-.018t.312-.03q.157-.017.315-.041t.317-.052s0,0,0,0a0,0,0,0,0,0,0h0a0,0,0,0,1,0,0h0l.17-.024.171-.019.171-.015.171-.01a5.724,5.724,0,0,1,1,.042,5.069,5.069,0,0,1,.937.214,4.552,4.552,0,0,1,.855.385,4.208,4.208,0,0,1,.748.553,4.016,4.016,0,0,1,1.024,1.514,4.225,4.225,0,0,1,.236.914,4.648,4.648,0,0,1,.033.991l-.162.977a5.823,5.823,0,0,1-.374,1.015,6.452,6.452,0,0,1-.565.959,6.957,6.957,0,0,1-.738.874,7.356,7.356,0,0,1-1.9,1.376,7.07,7.07,0,0,1-1.064.432,6.56,6.56,0,0,1-1.089.243,6.021,6.021,0,0,1-1.082.048l-.178-.011-.176-.017-.173-.022-.169-.027h0a0,0,0,0,1,0,0h0a0,0,0,0,0,0,0h0q-.156-.032-.314-.059t-.317-.046q-.159-.02-.318-.033t-.318-.021q-.2-.009-.395-.009t-.4.01q-.2.01-.395.029t-.393.047q-.2.029-.4.067t-.394.085q-.2.047-.389.1t-.383.12q-.2.066-.389.141t-.383.159q-.19.084-.376.175t-.369.192q-.187.1-.371.214t-.364.232q-.18.12-.356.248t-.346.264l-.174.142q-.087.072-.173.147t-.17.151l-.167.155h0q-.142.159-.279.324t-.266.335q-.13.17-.253.345t-.238.355q-.114.177-.22.358t-.206.368q-.1.186-.192.375t-.176.382q-.084.192-.16.386t-.145.392q-.068.2-.129.4t-.112.4q-.042.163-.079.328t-.068.331q-.031.166-.057.333t-.046.334h0q-.013.09-.029.181t-.034.181c-.012.06-.025.121-.039.18s-.028.12-.044.179a7.321,7.321,0,0,1-.363,1.062,7.46,7.46,0,0,1-.52,1,7.325,7.325,0,0,1-.662.9,6.91,6.91,0,0,1-.787.78,6.246,6.246,0,0,1-.866.615,5.393,5.393,0,0,1-.905.426,4.637,4.637,0,0,1-.917.229A4.028,4.028,0,0,1,79.267,64.159Zm3.905-15.212,1.239-4.35-3.526.006q.062-.184.139-.364t.167-.355q.091-.175.2-.346t.223-.336q.114-.16.239-.312t.259-.295q.134-.143.278-.277t.3-.258q.153-.125.312-.236t.322-.21q.163-.1.331-.184t.34-.157q.178-.074.356-.132t.356-.1q.178-.041.356-.065t.354-.03a3.366,3.366,0,0,1,.348,0,3.028,3.028,0,0,1,.335.041,2.774,2.774,0,0,1,.32.077,2.616,2.616,0,0,1,.3.113,2.5,2.5,0,0,1,.273.143,2.394,2.394,0,0,1,.678.614,2.512,2.512,0,0,1,.172.262,2.6,2.6,0,0,1,.141.286,2.806,2.806,0,0,1,.108.308,3.029,3.029,0,0,1,.075.33,3.284,3.284,0,0,1,.04.359,3.576,3.576,0,0,1,0,.372c-.006.126-.018.254-.037.383s-.044.261-.076.393c0,.028-.01.055-.016.083l-.017.084c-.006.028-.013.056-.02.085s-.014.057-.022.085q-.053.2-.125.4t-.161.4q-.09.2-.2.39t-.232.38q-.12.181-.254.352t-.28.332q-.146.161-.3.311t-.327.288q-.169.138-.344.26t-.355.228q-.18.106-.365.2t-.373.162q-.195.075-.388.13t-.385.09a3.748,3.748,0,0,1-.379.049,3.472,3.472,0,0,1-.373.009Z" transform="translate(-70.399 -29.066)"/>
          </g>
          <path id="联合_41" data-name="联合 41" class="cls-5" d="M1.443,14.54a1.7,1.7,0,0,1-.8-.3,1.527,1.527,0,0,1-.49-.6,1.824,1.824,0,0,1-.157-.8A2.545,2.545,0,0,1,.2,11.938a3.389,3.389,0,0,1,.519-.863,3.673,3.673,0,0,1,.735-.676,3.416,3.416,0,0,1,.869-.438,2.561,2.561,0,0,1,.923-.131,1.807,1.807,0,0,1,.81.223h0L8.7,6.294a3.065,3.065,0,0,1-.145-.767,4.288,4.288,0,0,1,.195-1.546,5.561,5.561,0,0,1,.743-1.52,6.114,6.114,0,0,1,1.133-1.241,5.618,5.618,0,0,1,1.39-.86A4.352,4.352,0,0,1,13.536,0a3.074,3.074,0,0,1,1.39.253,2.53,2.53,0,0,1,1.009.819,2.851,2.851,0,0,1,.511,1.279,4.017,4.017,0,0,1-.107,1.624,5.435,5.435,0,0,1-.756,1.658A6.117,6.117,0,0,1,14.348,6.99a5.468,5.468,0,0,1-1.521.885,4.116,4.116,0,0,1-1.612.281,2.892,2.892,0,0,1-1.377-.392,2.506,2.506,0,0,1-.449-.342L4.813,11.13a1.772,1.772,0,0,1,.031.245,2.4,2.4,0,0,1-.149.956,3.183,3.183,0,0,1-.534.942,3.609,3.609,0,0,1-.8.739,3.305,3.305,0,0,1-.948.448,2.437,2.437,0,0,1-.678.1A2.506,2.506,0,0,1,1.443,14.54Z" transform="translate(1.988 11.725)"/>
          <g id="组_13791" data-name="组 13791" transform="translate(0 11.63)">
            <path id="椭圆_451" data-name="椭圆 451" class="cls-5" d="M18.572,14.874a3.448,3.448,0,0,1-1.62-.792,3.915,3.915,0,0,1-1.023-1.454,5.182,5.182,0,0,1-.379-1.879,6.637,6.637,0,0,1,.308-2.1A7.435,7.435,0,0,1,16.8,6.68a7.063,7.063,0,0,1,1.387-1.521A5.78,5.78,0,0,1,19.867,4.2a4.324,4.324,0,0,1,1.819-.256,3.5,3.5,0,0,1,1.648.559,3.689,3.689,0,0,1,1.18,1.282,4.794,4.794,0,0,1,.575,1.857,6.359,6.359,0,0,1-.183,2.252,7.4,7.4,0,0,1-.973,2.2,7.052,7.052,0,0,1-1.545,1.693,5.609,5.609,0,0,1-1.872.982A4.094,4.094,0,0,1,18.572,14.874Z" transform="translate(-9.715 8.531)"/>
            <path id="椭圆_452" data-name="椭圆 452" class="cls-5" d="M14.027,5.806a6.732,6.732,0,0,1,.828-1.556A7.052,7.052,0,0,1,16.014,2.98a5.837,5.837,0,0,1,1.359-.88,3.9,3.9,0,0,1,1.434-.366,2.431,2.431,0,0,1,1.254.258,2.088,2.088,0,0,1,.848.836,2.909,2.909,0,0,1,.348,1.311A4.74,4.74,0,0,1,21,5.806a6.618,6.618,0,0,1-.855,1.7,7.041,7.041,0,0,1-1.267,1.389A5.669,5.669,0,0,1,17.4,9.8a3.6,3.6,0,0,1-1.509.285,2.259,2.259,0,0,1-1.227-.4,2.175,2.175,0,0,1-.741-.954A3.226,3.226,0,0,1,13.7,7.391,5.073,5.073,0,0,1,14.027,5.806Z" transform="translate(-13.694 -1.73)"/>
          </g>
        </g>
        <path id="椭圆_454" data-name="椭圆 454" class="cls-6" d="M14.833,1.654a1.826,1.826,0,0,1,.828.151,1.506,1.506,0,0,1,.6.486,1.714,1.714,0,0,1,.3.761,2.406,2.406,0,0,1-.064.966,3.265,3.265,0,0,1-.45.986,3.668,3.668,0,0,1-.735.805,3.3,3.3,0,0,1-.905.527,2.441,2.441,0,0,1-.959.166,1.717,1.717,0,0,1-.819-.233,1.507,1.507,0,0,1-.539-.553,1.822,1.822,0,0,1-.226-.778,2.542,2.542,0,0,1,.116-.921,3.325,3.325,0,0,1,.441-.9,3.673,3.673,0,0,1,.673-.738,3.356,3.356,0,0,1,.827-.511,2.575,2.575,0,0,1,.907-.212Z" transform="translate(7.788 23.143)"/>
      </g>
    </g>
  </g>
</svg>
